<?xml version="1.0" encoding="utf-8"?>
<!-- Generator: Adobe Adobe Illustrator 29.2.0, SVG Export Plug-In . SVG Version: 6.00 Build 0)  -->
<svg version="1.1" id="Layer_1" xmlns="http://www.w3.org/2000/svg" xmlns:xlink="http://www.w3.org/1999/xlink" x="0px" y="0px"
	 width="87.5px" height="91.02px" viewBox="0 0 87.5 91.02" style="enable-background:new 0 0 87.5 91.02;" xml:space="preserve">
<style type="text/css">
	.st0{fill:#0D1131;}
	.st1{fill:#EF4136;}
	.st2{fill:#1C75BC;}
	.st3{fill:#FFFFFF;}
	.st4{fill:#34B670;}
</style>
<circle class="st0" cx="43.75" cy="45.19" r="43.75"/>
<path class="st4" d="M48.78,25.78h26.4c2.43,0,4.12,0.86,5.07,2.59c0.95,1.72,0.91,3.81-0.11,6.25l-3.48,8.41
	c-1.02,2.41-2.58,4.48-4.67,6.23c-2.09,1.74-4.64,2.61-7.63,2.61h-0.21l4.59,12.72H56.86l-3.59-12.72h-5.02l-5.28,12.72H32.62
	L48.78,25.78z M65.67,42.92c0.46,0,0.77-0.23,0.95-0.7l2.64-6.36c0.21-0.47,0.09-0.7-0.37-0.7H55.22L52,42.92H65.67z"/>
<path class="st4" d="M6.57,64.59l16.16-38.81h10.35L27,40.34h15.26l6.07-14.55h10.35L42.52,64.59H32.17l6.18-14.88H23.09
	l-6.18,14.88H6.57z"/>
</svg>
