<?xml version="1.0" encoding="utf-8"?>
<!-- Generator: Adobe Adobe Illustrator 29.2.0, SVG Export Plug-In . SVG Version: 6.00 Build 0)  -->
<svg version="1.1" id="Layer_1" xmlns="http://www.w3.org/2000/svg" xmlns:xlink="http://www.w3.org/1999/xlink" x="0px" y="0px"
	 width="478px" height="64.5px" viewBox="0 0 478 64.5" style="enable-background:new 0 0 478 64.5;" xml:space="preserve">
<style type="text/css">
	.st0{fill:#0D1131;}
	.st1{fill:#EF4136;}
	.st2{fill:#1C75BC;}
	.st3{fill:#FFFFFF;}
	.st4{fill:#34B670;}
</style>
<path class="st3" d="M4.43,55.15L23.76,8.72h12.38l-7.26,17.41h18.26l7.26-17.41h12.38L47.45,55.15H35.07l7.39-17.8H24.2l-7.39,17.8
	H4.43z"/>
<path class="st3" d="M65.2,55.15c-2.91,0-4.94-1.02-6.1-3.06c-1.16-2.04-1.11-4.55,0.16-7.51l10.49-25.28
	c1.22-2.97,3.05-5.47,5.5-7.51c2.44-2.04,5.12-3.06,8.02-3.06h23.31c2.91,0,4.93,1.02,6.06,3.06c1.14,2.04,1.09,4.55-0.13,7.51
	l-10.49,25.28c-1.26,2.97-3.11,5.47-5.53,7.51c-2.42,2.04-5.09,3.06-7.99,3.06H65.2z M99.5,20.78c0.25-0.56,0.1-0.84-0.44-0.84
	H82.69c-0.55,0-0.95,0.28-1.2,0.84l-9.29,22.31c-0.21,0.56-0.04,0.84,0.51,0.84h16.36c0.55,0,0.93-0.28,1.14-0.84L99.5,20.78z"/>
<path class="st3" d="M124.32,8.72h31.58c2.91,0,4.93,1.03,6.06,3.1c1.14,2.06,1.09,4.56-0.13,7.48l-4.17,10.06
	c-1.22,2.88-3.09,5.36-5.59,7.45c-2.51,2.09-5.55,3.13-9.13,3.13h-0.25l5.5,15.22h-14.21l-4.3-15.22h-6l-6.32,15.22h-12.38
	L124.32,8.72z M144.53,29.22c0.55,0,0.93-0.28,1.14-0.84l3.16-7.61c0.25-0.56,0.1-0.84-0.44-0.84h-16.36l-3.85,9.29H144.53z"/>
<path class="st3" d="M171.63,40.44l-1.14,2.64c-0.21,0.56-0.04,0.84,0.51,0.84h15.1c0.55,0,0.93-0.28,1.14-0.84l2.15-5.16
	c0.25-0.56,0.1-0.84-0.44-0.84H171c-2.91,0-4.94-1.02-6.1-3.06c-1.16-2.04-1.11-4.55,0.16-7.51l2.97-7.22
	c1.22-2.97,3.05-5.47,5.5-7.51c2.44-2.04,5.12-3.06,8.02-3.06h22.05c2.91,0,4.93,1.02,6.06,3.06c1.14,2.04,1.09,4.55-0.13,7.51
	l-1.71,4.13h-12.38l1.07-2.64c0.25-0.56,0.1-0.84-0.44-0.84h-15.1c-0.55,0-0.95,0.28-1.2,0.84l-2.15,5.16
	c-0.21,0.56-0.04,0.84,0.51,0.84h17.94c2.91,0,4.94,1.02,6.1,3.06c1.16,2.04,1.11,4.55-0.16,7.51l-2.97,7.22
	c-1.26,2.97-3.05,5.47-5.37,7.51c-2.32,2.04-4.93,3.06-7.83,3.06h-22.36c-2.91,0-4.94-1.02-6.1-3.06c-1.16-2.04-1.11-4.55,0.16-7.51
	l1.71-4.13H171.63z"/>
<path class="st3" d="M244.59,43.93l-4.67,11.22h-37.9l19.33-46.43h37.9l-4.67,11.22h-25.52l-3.03,7.29h22.68l-3.92,9.41H222.1
	l-3.03,7.29H244.59z"/>
<path class="st4" d="M286.66,8.72h31.58c2.91,0,4.93,1.03,6.06,3.1c1.14,2.06,1.09,4.56-0.13,7.48l-4.17,10.06
	c-1.22,2.88-3.09,5.36-5.59,7.45c-2.51,2.09-5.55,3.13-9.13,3.13h-0.25l5.5,15.22h-14.21l-4.3-15.22h-6l-6.32,15.22h-12.38
	L286.66,8.72z M306.87,29.22c0.55,0,0.93-0.28,1.14-0.84l3.16-7.61c0.25-0.56,0.1-0.84-0.44-0.84h-16.36l-3.85,9.29H306.87z"/>
<path class="st4" d="M331.38,19.29c2.95-7.05,6.82-10.58,11.62-10.58h24.95c2.91,0,4.93,1.02,6.06,3.06
	c1.14,2.04,1.09,4.55-0.13,7.51l-14.91,35.85h-12.38l4.67-11.22h-17.75l-4.67,11.22h-12.38L331.38,19.29z M355.2,34.51l5.37-12.96
	c0.46-1.07,0.17-1.61-0.88-1.61h-14.59c-1.05,0-1.81,0.54-2.27,1.61l-5.37,12.96H355.2z"/>
<path class="st4" d="M400.74,43.93c0.34,0,0.57-0.17,0.7-0.52l2.02-4.84h12.38l-4.3,10.38c-0.72,1.72-1.92,3.18-3.6,4.38
	c-1.68,1.2-3.37,1.81-5.05,1.81h-26.34c-2.91,0-4.94-1.02-6.1-3.06c-1.16-2.04-1.11-4.55,0.16-7.51l10.49-25.28
	c1.22-2.97,2.95-5.47,5.18-7.51c2.23-2.04,4.8-3.06,7.71-3.06h28.24c1.68,0,2.86,0.6,3.54,1.81c0.67,1.2,0.65,2.67-0.06,4.38
	l-4.3,10.38h-12.38l1.96-4.84c0.17-0.34,0.08-0.52-0.25-0.52h-16.68c-0.55,0-0.95,0.28-1.2,0.84l-9.29,22.31
	c-0.21,0.56-0.04,0.84,0.51,0.84H400.74z"/>
<path class="st4" d="M458.92,43.93l-4.67,11.22h-37.9l19.33-46.43h37.9l-4.67,11.22h-25.52l-3.03,7.29h22.68l-3.92,9.41h-22.68
	l-3.03,7.29H458.92z"/>
</svg>
